<?xml version="1.0" encoding="UTF-8" standalone="no"?>
<!-- Created with Inkscape (http://www.inkscape.org/) -->

<svg
   width="168.979mm"
   height="146.3398mm"
   viewBox="0 0 168.979 146.3398"
   version="1.1"
   id="svg1"
   xml:space="preserve"
   xmlns="http://www.w3.org/2000/svg"
   xmlns:svg="http://www.w3.org/2000/svg"><defs
     id="defs1" /><g
     id="layer3"
     transform="translate(-20.71788,-70.809291)"><path
       style="fill:#da8207;fill-opacity:1;stroke:none;stroke-width:0.416263;stroke-linecap:butt;stroke-linejoin:round;stroke-dasharray:none;stroke-opacity:1"
       d="m 36.425985,115.81664 0.08165,55.7401 C 20.20325,162.94333 18.726784,123.7226 36.425985,115.81664 Z"
       id="path239" /></g><g
     id="layer2"
     transform="translate(-20.71788,-70.809291)"><rect
       style="fill:#da8207;fill-opacity:1;stroke:none;stroke-width:217.421;stroke-linecap:square;stroke-linejoin:miter;stroke-dasharray:none;stroke-opacity:1"
       id="rect13"
       width="33.50671"
       height="79.220619"
       x="45.380611"
       y="105.94405" /><rect
       style="fill:#da8207;fill-opacity:1;stroke:none;stroke-width:233.197;stroke-linecap:square;stroke-linejoin:miter;stroke-dasharray:none;stroke-opacity:1"
       id="rect12"
       width="38.022823"
       height="80.309845"
       x="131.88925"
       y="104.72738" /><rect
       style="fill:#da8207;fill-opacity:1;stroke:none;stroke-width:221.666;stroke-linecap:square;stroke-linejoin:miter;stroke-dasharray:none;stroke-opacity:1"
       id="rect11"
       width="70.403725"
       height="39.189346"
       x="70.857567"
       y="173.20876" /><rect
       style="fill:#da8207;fill-opacity:1;stroke:none;stroke-width:211.501;stroke-linecap:square;stroke-linejoin:miter;stroke-dasharray:none;stroke-opacity:1"
       id="rect10"
       width="69.511932"
       height="36.135101"
       x="70.846771"
       y="77.788071" /><rect
       style="fill:#037590;fill-opacity:1;stroke:#880900;stroke-width:1.5875;stroke-dasharray:none;stroke-opacity:1"
       id="rect1"
       width="45.67495"
       height="53.506077"
       x="82.591225"
       y="116.93861" /><rect
       style="fill:#880900;fill-opacity:1;stroke:none;stroke-width:0.991252"
       id="rect2"
       width="14.613352"
       height="59.256767"
       x="64.274223"
       y="113.95141"
       ry="0" /><rect
       style="fill:#880900;fill-opacity:1;stroke:none;stroke-width:0.979375"
       id="rect3"
       width="14.668645"
       height="59.259155"
       x="131.88925"
       y="113.95103" /><rect
       style="fill:#880900;fill-opacity:1;stroke:none;stroke-width:1.0406;stroke-opacity:1"
       id="rect4"
       width="53.00193"
       height="14.306729"
       x="78.886467"
       y="173.20909" /><rect
       style="fill:#880900;fill-opacity:1;stroke:none;stroke-width:1.0382"
       id="rect5"
       width="53.004078"
       height="15.139609"
       x="78.885994"
       y="98.812744" /><path
       style="fill:#da8207;fill-opacity:1;stroke:none;stroke-width:0.43534;stroke-linecap:butt;stroke-linejoin:round;stroke-dasharray:none;stroke-opacity:1"
       d="m 174.568,116.64764 -0.30794,55.44392 c 17.83301,-8.61341 19.66654,-47.53796 0.30794,-55.44392 z"
       id="path13" /><path
       style="fill:none;stroke:#057491;stroke-width:3.175;stroke-linecap:butt;stroke-linejoin:miter;stroke-dasharray:none;stroke-opacity:1"
       d="m 38.052921,113.27693 c -23.762495,14.07124 -17.991202,53.53409 -0.160776,60.65274"
       id="path14" /><path
       style="fill:#880900;fill-opacity:1;stroke:none;stroke-width:0.259533;stroke-linecap:butt;stroke-linejoin:round;stroke-dasharray:none;stroke-opacity:1"
       d="m 172.83618,125.64637 0.55749,37.06065 c 8.22113,-5.90475 8.84126,-31.91208 -0.55749,-37.06065 z"
       id="path8" /><path
       style="fill:#880900;fill-opacity:1;stroke:none;stroke-width:0.264583;stroke-linecap:butt;stroke-linejoin:round;stroke-dasharray:none;stroke-opacity:1"
       d="m 37.824133,124.97919 -0.579477,37.05561 c -8.545331,-5.90395 -9.189915,-31.90774 0.579477,-37.05561 z"
       id="path7" /><path
       style="fill:none;stroke:#057491;stroke-width:3.175;stroke-linecap:butt;stroke-linejoin:miter;stroke-dasharray:none;stroke-opacity:1"
       d="m 65.927157,72.396849 -0.0027,27.621451 -28.063885,-0.005 -0.02972,88.21359 28.107449,-0.0113 -0.0056,27.3358 79.199249,0.01 0.0129,-27.35329 28.02323,0.0125 0.008,-88.19296 -28.03611,0.003 0.005,-27.630896 z"
       id="path5" /><path
       style="fill:none;stroke:#880900;stroke-width:1.5875;stroke-linecap:butt;stroke-linejoin:miter;stroke-dasharray:none;stroke-opacity:1"
       d="m 69.969395,76.901634 71.180305,0.09383 0.11694,26.998556 29.52539,-0.0643 -0.008,81.9089 -28.78987,0.008 0.0611,27.34601 -71.975192,0.034 -0.02592,-27.37681 -25.566528,-0.013 0.101694,-80.6867 h 25.497417 z"
       id="path6" /><path
       style="fill:none;stroke:#03758f;stroke-width:3.175;stroke-linecap:butt;stroke-linejoin:miter;stroke-dasharray:none;stroke-opacity:1"
       d="m 172.78656,113.43429 c 23.12141,14.07662 17.50582,53.55455 0.15644,60.67591"
       id="path9" /><path
       style="fill:none;stroke:#057491;stroke-width:3.175;stroke-linecap:butt;stroke-linejoin:miter;stroke-dasharray:none;stroke-opacity:1"
       d="m 38.052921,113.27693 c -23.762495,14.07124 -17.991202,53.53409 -0.160776,60.65274"
       id="path10" /></g></svg>
